<?xml version="1.0" encoding="UTF-8"?>
<svg xmlns="http://www.w3.org/2000/svg" xmlns:xlink="http://www.w3.org/1999/xlink" width="55px" height="25px" viewBox="0 0 55 25" version="1.1">
<g id="surface1">
<path style=" stroke:none;fill-rule:nonzero;fill:rgb(84.705882%,84.705882%,84.705882%);fill-opacity:1;" d="M 53.910156 0.351562 C 53.589844 0.0273438 50.082031 0 50.082031 0 L 35.625 5.925781 C 33.628906 3.921875 30.890625 2.675781 27.863281 2.675781 C 21.84375 2.675781 16.953125 7.554688 16.835938 13.617188 L 3.371094 19.132812 C 3.371094 19.132812 0.734375 22.035156 0.242188 22.535156 C -0.253906 23.03125 0.707031 25 1.054688 25 C 1.40625 25 6.972656 25 6.972656 25 C 6.972656 25 12.0625 22.921875 18.789062 20.171875 C 20.773438 23.085938 24.097656 25 27.863281 25 C 33.960938 25 38.898438 20.003906 38.898438 13.835938 C 38.898438 13.214844 38.84375 12.597656 38.738281 12 C 45.542969 9.210938 50.789062 7.046875 51.007812 6.921875 C 51.644531 6.570312 54.898438 2.675781 54.898438 2.675781 C 54.898438 2.675781 54.226562 0.671875 53.910156 0.351562 Z M 13.414062 17.300781 L 2.078125 21.855469 L 3.890625 19.699219 L 13.734375 15.640625 Z M 16.34375 17.316406 L 16.828125 14.203125 L 16.84375 14.199219 C 16.871094 14.9375 16.96875 15.667969 17.125 16.367188 L 21.855469 14.398438 C 21.84375 14.210938 21.828125 14.023438 21.828125 13.835938 C 21.828125 10.464844 24.527344 7.734375 27.863281 7.734375 C 29.746094 7.734375 31.425781 8.605469 32.527344 9.96875 L 37.261719 8.011719 C 36.953125 7.496094 36.597656 7.019531 36.210938 6.5625 L 36.226562 6.554688 L 38.480469 8.128906 L 17.246094 16.886719 Z M 28.515625 14.058594 C 28.515625 14.355469 28.273438 14.601562 27.980469 14.601562 C 27.6875 14.601562 27.445312 14.355469 27.445312 14.058594 C 27.445312 13.761719 27.6875 13.519531 27.980469 13.519531 C 28.273438 13.519531 28.515625 13.761719 28.515625 14.058594 Z M 27.863281 19.941406 C 26.214844 19.941406 24.726562 19.269531 23.636719 18.1875 C 24.015625 18.035156 24.398438 17.875 24.78125 17.71875 C 25.632812 18.480469 26.753906 18.949219 27.980469 18.949219 C 30.527344 18.949219 32.609375 16.960938 32.800781 14.433594 C 33.164062 14.28125 33.527344 14.136719 33.890625 13.988281 C 33.808594 17.296875 31.144531 19.941406 27.863281 19.941406 Z M 49.148438 2.953125 L 39.539062 6.8125 L 38.191406 5.550781 L 49.710938 0.796875 L 52.253906 0.878906 Z M 49.148438 2.953125 "/>
</g>
</svg>
